<svg width="32" height="32" viewBox="0 0 32 32" fill="none" xmlns="http://www.w3.org/2000/svg">
<g id="planet-earth 1">
<path id="Vector" d="M30.2763 4.43323C29.8467 3.08473 29.2643 2.11918 29.2396 2.0786C29.1442 1.92154 28.9476 1.83984 28.7695 1.8806C28.7234 1.89111 27.6238 2.14726 26.3553 2.77948C24.6428 3.63271 23.4466 4.77181 22.8955 6.07303C22.4368 7.15668 22.3709 8.48146 22.6964 9.94499C22.0032 9.17237 21.2234 8.49649 20.3733 7.92749C20.1137 7.41573 19.4274 6.15581 18.3545 4.83901C18.001 4.40551 17.3212 4.94952 17.6783 5.38736C18.4013 6.27483 18.9455 7.14763 19.2858 7.74724L15.3173 6.97517L11.5467 1.84256C11.9129 1.84763 12.2803 1.88296 12.6458 1.95451C13.8048 2.18095 14.9497 2.77006 16.0492 3.70518C16.4799 4.07165 17.0393 3.40464 16.6142 3.04324C15.3997 2.01031 14.1209 1.35671 12.8132 1.1011C10.817 0.71126 8.48885 1.22302 6.07972 2.58167C4.28413 3.59431 3.08338 4.70659 3.03328 4.75333C2.87263 4.90314 2.84704 5.17523 2.98154 5.35023C3.15762 5.71072 3.82489 7.01122 4.93561 8.41135C5.59035 9.23686 6.28085 9.94336 6.99513 10.524C6.79219 10.6937 6.5947 10.8712 6.40356 11.058C5.38269 12.0545 4.60106 13.23 4.08791 14.5151C3.63429 15.6506 3.39033 16.8721 3.37671 18.1311C3.3542 20.1899 3.95195 22.1755 5.10569 23.8737C6.23275 25.5323 7.80834 26.8058 9.66202 27.5563C10.1808 27.7659 10.5088 26.9607 9.98966 26.7506C9.31804 26.4786 8.68707 26.1303 8.10512 25.716C8.17954 25.304 8.35217 23.8215 7.36543 22.2868C7.22729 22.0721 7.64025 21.229 7.88675 20.7254C8.14124 20.2064 8.4039 19.6698 8.52661 19.1646C8.65694 18.6278 8.51027 18.1773 8.10276 17.8612C7.80362 17.6291 7.41208 17.509 7.06701 17.4031C6.84283 17.3342 6.58871 17.2563 6.49795 17.1808C6.31098 17.0245 6.00566 16.4468 5.76025 15.9828C5.48797 15.4682 5.22876 14.9783 4.9641 14.6767C5.55967 13.2652 6.51628 12.0161 7.71431 11.0605C8.80869 11.8045 10.0577 12.3179 11.3854 12.4219C9.84571 13.6124 9.34762 15.1329 10.0595 16.5933C10.8909 18.2987 12.6021 18.0262 14.1118 17.7862C14.373 17.7445 14.6433 17.7016 14.9021 17.6694C14.9992 17.6572 15.0285 17.6837 15.0481 17.7009C15.3786 17.9943 15.3688 19.3959 15.3617 20.4194C15.3521 21.8352 15.343 23.1724 15.8714 23.859C16.141 24.209 16.5206 24.388 16.9655 24.388C17.2321 24.388 17.5218 24.3238 17.8257 24.1938C19.1397 23.6322 20.5056 21.942 20.2973 20.6048C20.1152 19.4356 19.9947 18.6632 20.2787 18.0405C20.5414 17.4643 21.1764 16.9308 22.4268 16.25C22.5766 16.923 22.6521 17.6232 22.6443 18.3414C22.6176 20.7932 21.6356 23.0878 19.8794 24.8024C17.9166 26.7187 15.1581 27.665 12.4293 27.3648C11.8733 27.3047 11.7773 28.1681 12.334 28.2293C15.3209 28.5576 18.3408 27.5214 20.4886 25.4242C22.4114 23.5469 23.4864 21.035 23.5156 18.3507C23.5544 14.7916 21.7245 11.6384 18.9389 9.82199C19.5145 9.4124 19.9433 9.05825 20.1811 8.85264C21.1967 9.57979 22.0976 10.4756 22.8471 11.5192C24.6463 14.0251 25.3598 17.0799 24.8567 20.1214C23.8175 26.4 17.854 30.6649 11.5616 29.6274C8.51372 29.1251 5.84447 27.4686 4.04525 24.9628C2.24585 22.457 1.53229 19.4019 2.03565 16.3605C2.12604 15.8133 1.26691 15.6696 1.17615 16.2189C0.634676 19.4896 1.40232 22.7748 3.33678 25.4694C5.2716 28.1637 8.14233 29.9452 11.4197 30.4856C12.1051 30.5984 12.7912 30.6542 13.4727 30.6542C16.0484 30.6542 18.5541 29.8561 20.6893 28.3291C23.3898 26.3982 25.1751 23.5338 25.7162 20.2631C26.1128 17.8665 25.8058 15.462 24.8525 13.2878C25.2925 13.1583 26.0413 12.9068 26.8614 12.4982C28.5735 11.6449 29.7699 10.5058 30.3208 9.20462C30.8722 7.90303 30.8568 6.25309 30.2763 4.43323ZM4.98952 16.3886C5.31371 17.002 5.6203 17.5817 5.93886 17.8476C6.16449 18.0358 6.47852 18.1322 6.81089 18.2342C7.6624 18.4954 7.76132 18.6237 7.67964 18.9597C7.57944 19.3729 7.33766 19.8664 7.10404 20.3434C6.65405 21.2622 6.22912 22.1295 6.63191 22.7563C7.20315 23.6447 7.30099 24.5193 7.29119 25.0633C4.69618 22.7281 3.63955 19.0396 4.60615 15.6872C4.7343 15.9064 4.86899 16.1611 4.98952 16.3886ZM26.0685 7.84416L24.8304 4.8497C25.4328 4.2874 26.1318 3.86423 26.7272 3.56623C27.2344 3.31226 27.7169 3.12241 28.1039 2.98781L26.0685 7.84416ZM28.9071 3.32494C29.0801 3.69594 29.2807 4.17436 29.452 4.7151C29.6399 5.30856 29.8123 6.04404 29.8467 6.81123L26.9451 8.00593L28.9071 3.32494ZM23.698 6.4116C23.8265 6.10835 23.9926 5.8272 24.1845 5.56761L25.594 8.976L24.3292 11.9944C24.1515 11.6181 23.9422 11.1239 23.7646 10.5625C23.4083 9.43849 23.1077 7.80557 23.698 6.4116ZM26.4893 11.7114C26.0012 11.956 25.5354 12.1411 25.156 12.2746L26.4686 9.14303L29.8096 7.76717C29.7612 8.14071 29.6688 8.51098 29.5183 8.86604C28.9282 10.26 27.5453 11.183 26.4893 11.7114ZM10.7793 11.464C10.6253 11.4339 10.4734 11.3971 10.3237 11.3553L15.1455 7.82786L19.1159 8.60011C17.6696 9.73739 14.1497 12.123 10.7793 11.464ZM6.37252 8.74358C5.3413 7.63438 4.58545 6.44838 4.15144 5.68898L9.20404 6.6721L6.37252 8.74358ZM7.26487 2.94252L9.37885 5.82014L4.29357 4.83086C4.93379 4.32635 5.9906 3.56895 7.26487 2.94252ZM10.6393 6.06542L8.07644 2.57659C8.84373 2.26193 9.66728 2.01429 10.5115 1.90415L14.057 6.73007L10.6393 6.06542ZM10.3681 6.89854L13.9816 7.60142L9.34399 10.9939C8.46943 10.5908 7.68236 10.0113 6.99368 9.36711L10.3681 6.89854ZM22.1901 15.3892C20.6195 16.2243 19.8504 16.8803 19.4855 17.6804C19.0936 18.5396 19.2372 19.4619 19.4359 20.7383C19.5534 21.491 18.657 22.8925 17.4826 23.3945C17.0481 23.5802 16.7386 23.5583 16.5623 23.3291C16.2162 22.8795 16.2256 21.5187 16.233 20.4254C16.2434 18.9128 16.2525 17.6065 15.6271 17.0513C15.4022 16.8516 15.1145 16.7672 14.7949 16.8063C14.5209 16.8404 14.243 16.8846 13.9746 16.9274C12.373 17.1821 11.3652 17.284 10.8432 16.2129C9.99728 14.478 11.7096 13.1929 12.485 12.721C12.6429 12.625 12.7894 12.5117 12.9256 12.3857C14.7998 12.1621 16.5707 11.3596 18.1488 10.3544C20.041 11.4826 21.4935 13.2681 22.1901 15.3892Z" fill="#FAF9F6"/>
</g>
</svg>
