<svg width="100" height="100" viewBox="0 0 100 100" fill="none" xmlns="http://www.w3.org/2000/svg">
<g id="testimonial_icon">
<rect id="Rectangle 191" width="100" height="100" fill="#008080"/>
<path id="&#226;&#128;&#156;" d="M53.4375 69V57.221C53.4375 50.4769 54.9958 44.9338 58.1125 40.5918C61.3208 36.1573 65.95 33.2934 72 32V39.6217C69.0667 40.3608 66.775 41.7466 65.125 43.779C63.475 45.7191 62.4667 48.1211 62.1 50.985H69.25V69H53.4375ZM28 69V57.221C28 50.4769 29.5583 44.9338 32.675 40.5918C35.8833 36.1573 40.5125 33.2934 46.5625 32V39.6217C43.6292 40.3608 41.3375 41.7466 39.6875 43.779C38.0375 45.7191 37.0292 48.1211 36.6625 50.985H43.8125V69H28Z" fill="#FAF9F6"/>
</g>
</svg>
